<svg xmlns="http://www.w3.org/2000/svg" xmlns:xlink="http://www.w3.org/1999/xlink" width="940" zoomAndPan="magnify" viewBox="0 0 705 591.000005" height="788" preserveAspectRatio="xMidYMid meet" version="1.0"><defs><filter x="0%" y="0%" width="100%" height="100%" id="8ea0eb92fb"><feColorMatrix values="0 0 0 0 1 0 0 0 0 1 0 0 0 0 1 0 0 0 1 0" color-interpolation-filters="sRGB"/></filter><mask id="9f96b4dc75"><g filter="url(#8ea0eb92fb)"><rect x="-70.5" width="846" fill="#000000" y="-59.100001" height="709.200006" fill-opacity="0.73"/></g></mask><clipPath id="182edf612b"><path d="M 0.519531 0 L 609.84375 0 L 609.84375 590 L 0.519531 590 Z M 0.519531 0 " clip-rule="nonzero"/></clipPath><clipPath id="e66599192b"><rect x="0" width="610" y="0" height="590"/></clipPath></defs><g mask="url(#9f96b4dc75)"><g transform="matrix(1, 0, 0, 1, 47, -0.000000000000107785)"><g clip-path="url(#e66599192b)"><g clip-path="url(#182edf612b)"><path fill="#ea0002" d="M 607.828125 289.703125 C 610.476562 292.351562 610.476562 296.324219 607.828125 298.972656 L 325.699219 586.402344 C 324.371094 587.730469 323.046875 588.390625 321.0625 588.390625 L 278.675781 589.714844 C 276.6875 589.714844 275.363281 589.054688 274.039062 587.730469 C 272.714844 586.402344 272.054688 585.078125 272.054688 583.09375 L 272.054688 470.503906 C 272.054688 468.519531 272.714844 467.195312 274.039062 465.871094 L 444.90625 293.675781 L 272.714844 122.808594 C 271.390625 121.484375 270.726562 120.160156 270.726562 118.171875 L 270.726562 34.0625 C 270.726562 32.074219 272.054688 29.425781 274.039062 28.765625 L 316.425781 1.609375 C 318.414062 0.285156 320.398438 0.285156 322.386719 0.949219 C 323.046875 0.949219 324.371094 1.609375 325.035156 2.273438 Z M 7.140625 589.714844 L 50.1875 588.390625 C 52.175781 588.390625 53.5 587.730469 54.824219 586.402344 L 336.957031 298.972656 C 339.605469 296.324219 339.605469 292.351562 336.957031 289.703125 L 54.824219 2.273438 C 54.164062 1.609375 53.5 0.949219 52.175781 0.949219 C 50.1875 0.285156 47.539062 0.285156 46.214844 1.609375 L 3.828125 28.765625 C 1.84375 29.425781 0.519531 32.074219 0.519531 34.0625 L 0.519531 118.171875 C 0.519531 120.160156 1.179688 121.484375 2.503906 122.808594 L 173.371094 293.675781 L 2.503906 465.871094 C 1.179688 467.195312 0.519531 468.519531 0.519531 470.503906 L 0.519531 583.09375 C 0.519531 585.078125 1.179688 586.402344 2.503906 587.730469 C 3.828125 589.054688 5.152344 589.714844 7.140625 589.714844 Z M 7.140625 589.714844 " fill-opacity="1" fill-rule="nonzero"/></g></g></g></g></svg>