<?xml version="1.0" encoding="UTF-8" standalone="no"?>
<!DOCTYPE svg PUBLIC "-//W3C//DTD SVG 1.1//EN" "http://www.w3.org/Graphics/SVG/1.1/DTD/svg11.dtd">
<svg width="100%" height="100%" viewBox="0 0 3508 3544" version="1.1" xmlns="http://www.w3.org/2000/svg" xmlns:xlink="http://www.w3.org/1999/xlink" xml:space="preserve" xmlns:serif="http://www.serif.com/" style="fill-rule:evenodd;clip-rule:evenodd;stroke-linejoin:bevel;stroke-miterlimit:1.5;">
    <path d="M2714.58,2827.81C2804.73,2747.77 2885.07,2656.6 2952.45,2556.7C3055.35,2404.13 3129.12,2232.37 3167.77,2052.38C3167.85,2047.55 3167.77,2052.38 3167.77,2052.38L3389.95,2052.2L3389.22,1945.26L3419.42,1907.16L3419.48,1590.18L3389.95,1555.93L3389.95,1445.56L3124.61,1445.56C3086.4,1272.02 3014.43,1106.29 2914.52,959.41C2684.52,621.286 2307.23,395.182 1900.5,353.151C1730.17,335.549 1557.83,349.625 1392.25,393.152C1232.1,435.252 1079.09,508.861 944.254,604.656C809.025,700.73 690.114,820.651 596.792,957.895C497.036,1104.6 424.729,1269.72 386.242,1442.99L117.602,1443.28L117.673,1554.08L88.39,1589.86L88.419,1907.16L116.869,1945.84L116.869,2049.89L339.114,2049.37C339.114,2049.37 339.445,2049.26 339.529,2049.65C376.849,2224.83 447.411,2391.87 545.439,2541.74C615.099,2648.24 699.184,2744.77 794.447,2829.24C794.487,2829.29 794.447,2829.24 794.447,2829.24C794.447,2829.24 794.429,2899.35 794.423,2916.29C907.417,3009.21 1033.83,3085.72 1168.7,3142.44C1519.28,3289.86 1921.83,3298.48 2278.48,3166.43C2436.16,3108.05 2583.7,3023 2713.54,2916.21C2713.75,2874.11 2714.58,2827.81 2714.58,2827.81Z" style="fill:white;"/>
    <path d="M3169.28,2054.26C3130.5,2233.93 3056.75,2405.4 2954.01,2557.74C2886.69,2657.55 2806.46,2748.66 2716.44,2828.67C2716.33,2835.05 2715.61,2877.42 2715.42,2916.22L2714.73,2917.66C2584.74,3024.58 2437,3109.74 2279.13,3168.19C1922.03,3300.4 1518.99,3291.78 1167.97,3144.16C1032.93,3087.38 906.366,3010.77 793.232,2917.74L792.548,2916.29C792.554,2900.44 792.57,2838.07 792.572,2830.08C697.444,2745.64 613.467,2649.17 543.87,2542.76C445.939,2393.04 375.387,2226.21 337.953,2051.25L331.539,2051.26L116.874,2051.76L114.994,2049.89L114.994,1946.45L86.909,1908.27L86.544,1907.16L86.515,1589.86L86.939,1588.67C86.939,1588.67 115.798,1553.41 115.798,1553.41L115.727,1443.28L117.6,1441.4L384.739,1441.11C423.358,1268.15 495.634,1103.33 595.241,956.841C688.689,819.412 807.758,699.331 943.168,603.128C1078.19,507.202 1231.41,433.495 1391.78,391.338C1557.57,347.755 1730.14,333.661 1900.69,351.286C2307.96,393.373 2685.76,619.779 2916.07,958.355C3015.84,1105.02 3087.78,1270.45 3126.11,1443.68L3389.95,1443.68L3391.82,1445.56L3391.82,1555.24L3420.9,1588.96L3421.36,1590.18L3421.29,1907.16L3420.89,1908.32L3391.1,1945.91L3391.82,2052.19L3389.95,2054.08L3169.28,2054.26ZM339.04,2047.5C339.384,2047.47 339.868,2047.51 340.321,2047.78C340.722,2048.02 341.182,2048.41 341.363,2049.26C378.635,2224.21 449.106,2391.03 547.008,2540.71C616.577,2647.08 700.553,2743.48 795.691,2827.83L795.726,2827.87C795.797,2827.93 795.872,2828.01 795.951,2828.12L795.952,2828.12C829.833,2873.57 832.362,2878.26 825.009,2869.8C834.39,2884.04 833.809,2885.07 796.321,2834.88C796.317,2851.54 796.304,2900.27 796.299,2915.4C908.978,3007.95 1035,3084.18 1169.42,3140.71C1519.57,3287.95 1921.62,3296.56 2277.83,3164.67C2435.03,3106.47 2582.16,3021.71 2711.67,2915.32C2711.88,2873.45 2712.7,2827.78 2712.7,2827.78L2713.33,2826.41C2803.37,2746.47 2883.61,2655.42 2950.9,2555.65C3053.62,2403.33 3127.29,2231.85 3165.89,2052.17L3165.93,2050.26C3165.93,2050.24 3165.93,2050.22 3165.93,2050.2C3165.93,2050.2 3165.93,2050.2 3165.93,2050.2C3165.98,2048.75 3166.91,2048.59 3167.83,2048.88C3168.76,2048.62 3169.68,2048.81 3169.68,2050.26C3169.68,2050.26 3169.68,2050.27 3169.68,2050.27C3169.68,2050.29 3169.68,2050.31 3169.68,2050.33L3169.67,2050.51L3388.06,2050.33L3387.35,1945.28L3387.75,1944.1L3417.54,1906.51C3417.54,1906.51 3417.61,1590.88 3417.61,1590.88L3388.53,1557.16L3388.07,1555.93L3388.07,1447.43L3124.61,1447.43L3122.77,1445.96C3084.62,1272.66 3012.75,1107.15 2912.97,960.464C2683.28,622.793 2306.49,396.991 1900.31,355.016C1730.21,337.437 1558.09,351.496 1392.73,394.965C1232.8,437.008 1079.99,510.519 945.34,606.185C810.292,702.13 691.54,821.889 598.342,958.949C498.72,1105.46 426.508,1270.36 388.073,1443.39L386.244,1444.86C386.244,1444.86 119.478,1445.15 119.478,1445.15L119.548,1554.08L119.124,1555.27L90.265,1590.53L90.294,1906.54L118.38,1944.73L118.744,1945.84C118.744,1945.84 118.744,2048.01 118.744,2048.01L339.04,2047.5ZM339.266,2051.22C339.425,2051.22 339.55,2051.2 339.614,2051.18C339.67,2051.16 339.709,2051.15 339.709,2051.15C339.709,2051.15 339.441,2051.19 339.266,2051.22Z" style="fill:none;"/>
    <path d="M159.065,1592.64L161.826,1592.64L161.469,1900.68L158.708,1900.68L159.065,1592.64Z"/>
    <rect x="3346.05" y="1609.57" width="2.761" height="291.112"/>
    <g transform="matrix(1,0,0,1,106.254,-803.814)">
        <path d="M54.192,2321.63L340.203,2321.63C449.268,1698.51 993.533,1224.3 1647.68,1224.3M1647.68,1224.3C2302.73,1224.3 2847.6,1699.82 2955.61,2324.2L3241.17,2324.2M3241.17,2781.19L2955.26,2781.19C2846.41,3404.57 2302.02,3879.06 1647.68,3879.06C990.304,3879.06 445.262,3405.61 339.985,2777.95L54.192,2779.32" style="fill:rgb(235,235,235);fill-opacity:0;"/>
    </g>
    <g transform="matrix(1,0,0,1,106.254,-803.814)">
        <path d="M1647.68,1190.96C2309.49,1190.96 2861.56,1664.46 2983.38,2290.87L3241.17,2290.87L3241.17,2357.53L2927.55,2357.53L2922.76,2329.88C2817.46,1721.19 2286.28,1257.63 1647.68,1257.63C1009.97,1257.63 479.362,1719.91 373.037,2327.37L368.209,2354.96L54.192,2354.96L54.192,2288.29C54.192,2288.29 312.493,2288.29 312.493,2288.29C435.317,1663.17 986.786,1190.96 1647.68,1190.96ZM3241.17,2747.86L3241.17,2814.53C3241.17,2814.53 2982.98,2814.53 2982.98,2814.53C2860.37,3439.92 2308.77,3912.39 1647.68,3912.39C983.538,3912.39 431.304,3440.95 312.101,2811.42L54.351,2812.65L54.033,2745.99L368.17,2744.49L372.859,2772.44C475.485,3384.29 1006.86,3845.73 1647.68,3845.73C2285.58,3845.73 2816.31,3383.18 2922.42,2775.46L2927.24,2747.86L3241.17,2747.86Z"/>
    </g>
    <g transform="matrix(0.916642,0,0,0.916642,147.138,-1530.7)">
        <path d="M662.375,3320.6C778.331,2825.6 1222.95,2456.53 1753.1,2456.53C2283.37,2456.53 2728.08,2825.78 2843.9,3320.97M2845.31,3826.38C2731.72,4324.62 2285.54,4696.9 1753.1,4696.9C1220.1,4696.9 773.546,4323.84 660.53,3824.82" style="fill:rgb(235,235,235);fill-opacity:0;"/>
    </g>
    <g transform="matrix(0.916642,0,0,0.916642,147.138,-1530.7)">
        <path d="M684.877,3325.87L639.873,3315.33C758.222,2810.11 1212.01,2433.42 1753.1,2433.42C2294.31,2433.42 2748.2,2810.3 2866.41,3315.71L2821.4,3326.23C2707.97,2841.26 2272.43,2479.64 1753.1,2479.64C1233.89,2479.64 798.44,2841.09 684.877,3325.87ZM2822.78,3821.24L2867.84,3831.51C2751.91,4340.04 2296.53,4720.01 1753.1,4720.01C1209.1,4720.01 753.338,4339.24 637.99,3829.92L683.071,3819.71C793.754,4308.44 1231.1,4673.79 1753.1,4673.79C2274.55,4673.79 2711.53,4309.2 2822.78,3821.24Z"/>
    </g>
    <g transform="matrix(1.16352,0,0,1.16352,-193.764,-1177.32)">
        <path d="M2221.75,1918.14C2256.17,1948.73 2287.55,1981.76 2315.71,2017.61C2355.64,2068.43 2389.08,2124.92 2415.51,2188.1M2120.52,1840.51C2127.79,1845.34 2134.97,1850.25 2142.05,1855.23M2145.78,1857.87C2151.27,1861.77 2156.71,1865.71 2162.08,1869.7M2166.36,1872.9C2171.01,1876.4 2175.62,1879.93 2180.18,1883.5M2184.32,1886.75C2188.69,1890.21 2193.01,1893.7 2197.3,1897.23M2201.64,1900.83C2207,1905.3 2212.3,1909.82 2217.52,1914.4" style="fill:rgb(235,235,235);fill-opacity:0;"/>
    </g>
    <g transform="matrix(1.16352,0,0,1.16352,-193.764,-1177.32)">
        <path d="M2190.74,1953.03L2252.77,1883.25C2289.27,1915.69 2322.55,1950.75 2352.42,1988.77C2394.88,2042.83 2430.47,2102.89 2458.57,2170.09L2372.44,2206.11C2347.69,2146.94 2316.39,2094.04 2279,2046.45C2252.55,2012.78 2223.07,1981.76 2190.74,1953.03ZM2094.67,1879.38L2146.36,1801.63C2153.98,1806.69 2161.49,1811.83 2168.9,1817.04L2115.2,1893.42C2108.45,1888.67 2101.6,1883.99 2094.67,1879.38ZM2118.75,1895.93L2172.81,1819.81C2178.58,1823.9 2184.28,1828.04 2189.92,1832.23L2134.25,1907.18C2129.14,1903.39 2123.97,1899.64 2118.75,1895.93ZM2138.31,1910.22L2194.41,1835.58C2199.3,1839.26 2204.14,1842.97 2208.94,1846.73L2151.42,1920.27C2147.1,1916.89 2142.72,1913.54 2138.31,1910.22ZM2155.34,1923.36L2213.29,1850.15C2217.89,1853.79 2222.45,1857.47 2226.96,1861.18L2167.63,1933.28C2163.58,1929.94 2159.48,1926.63 2155.34,1923.36ZM2171.74,1936.68L2231.54,1864.97C2237.2,1869.69 2242.78,1874.47 2248.3,1879.3L2186.75,1949.51C2181.81,1945.18 2176.81,1940.9 2171.74,1936.68Z" style="fill:rgb(221,0,0);"/>
    </g>
    <g transform="matrix(0.916642,0,0,0.916642,146.975,-1530.7)">
        <path d="M662.375,3320.6C778.331,2825.6 1222.95,2456.53 1753.1,2456.53C2283.37,2456.53 2728.08,2825.78 2843.9,3320.97M705.644,3974.33C687.266,3926 672.139,3876.07 660.53,3824.82M2532.62,4380.87C2330.91,4576.44 2055.96,4696.9 1753.1,4696.9C1450.4,4696.9 1175.58,4576.58 973.907,4381.19M2845.31,3826.38C2819.69,3938.73 2777.17,4044.68 2720.55,4141.4" style="fill:rgb(235,235,235);fill-opacity:0;"/>
    </g>
    <g transform="matrix(0.916642,0,0,0.916642,146.975,-1530.7)">
        <path d="M684.877,3325.87L639.873,3315.33C758.222,2810.11 1212.01,2433.42 1753.1,2433.42C2294.31,2433.42 2748.2,2810.3 2866.41,3315.71L2821.4,3326.23C2707.97,2841.26 2272.43,2479.64 1753.1,2479.64C1233.89,2479.64 798.44,2841.09 684.877,3325.87ZM727.246,3966.12L684.042,3982.55C665.281,3933.21 649.84,3882.24 637.99,3829.92L683.071,3819.71C694.438,3869.9 709.25,3918.79 727.246,3966.12ZM2516.53,4364.28L2548.7,4397.47C2342.84,4597.07 2062.21,4720.01 1753.1,4720.01C1444.15,4720.01 1163.66,4597.21 957.826,4397.79L989.988,4364.6C1187.5,4555.95 1456.65,4673.79 1753.1,4673.79C2049.71,4673.79 2318.99,4555.82 2516.53,4364.28ZM2822.78,3821.24L2867.84,3831.51C2841.7,3946.2 2798.29,4054.34 2740.5,4153.07L2700.61,4129.72C2756.05,4035.01 2797.69,3931.26 2822.78,3821.24Z"/>
    </g>
    <g transform="matrix(1.25298,0,0,1.25298,-367.449,-1700.27)">
        <path d="M1987.41,3396.72C1897.74,3437.76 1798.06,3460.64 1693.07,3460.64C1581.08,3460.64 1475.12,3434.6 1380.92,3388.26M1101.9,3142.7C1027.65,3030.65 984.387,2896.31 984.387,2751.95C984.387,2360.82 1301.94,2043.26 1693.07,2043.26C2084.21,2043.26 2401.76,2360.82 2401.76,2751.95C2401.76,2902.79 2354.53,3042.69 2274.07,3157.65" style="fill:rgb(235,235,235);fill-opacity:0;"/>
    </g>
    <g transform="matrix(1.25298,0,0,1.25298,-367.449,-1700.27)">
        <path d="M1985.01,3391.49L1989.8,3401.95C1899.41,3443.32 1798.91,3466.39 1693.07,3466.39C1580.17,3466.39 1473.35,3440.14 1378.38,3393.42L1383.46,3383.1C1476.89,3429.07 1581.99,3454.89 1693.07,3454.89C1797.2,3454.89 1896.08,3432.2 1985.01,3391.49ZM1106.69,3139.53L1097.11,3145.88C1022.25,3032.92 978.638,2897.49 978.638,2751.95C978.638,2357.64 1298.77,2037.51 1693.07,2037.51C2087.38,2037.51 2407.51,2357.64 2407.51,2751.95C2407.51,2904.02 2359.9,3045.05 2278.78,3160.95L2269.36,3154.36C2349.17,3040.33 2396.01,2901.57 2396.01,2751.95C2396.01,2363.99 2081.04,2049.01 1693.07,2049.01C1305.11,2049.01 990.137,2363.99 990.137,2751.95C990.137,2895.14 1033.04,3028.39 1106.69,3139.53Z"/>
    </g>
    <g transform="matrix(1.06133,0,0,1.06133,-345.239,-399.012)">
        <path d="M1280.15,2992.59C1257.44,2975.78 1244.48,2955.57 1241.29,2931.95C1238.09,2908.34 1245.7,2884.09 1264.12,2859.21C1281.88,2835.21 1302.73,2821.03 1326.69,2816.66C1350.64,2812.3 1373.97,2818.53 1396.68,2835.34C1402.72,2839.8 1407.89,2844.15 1412.2,2848.39C1416.51,2852.64 1420.42,2857 1423.92,2861.48C1426.63,2865.05 1429.37,2869.23 1432.13,2874C1434.89,2878.78 1437.05,2882.73 1438.61,2885.88L1411.89,2921.98L1408.02,2919.12C1407.4,2916.14 1406.53,2912.48 1405.43,2908.16C1404.34,2903.83 1402.83,2899.27 1400.91,2894.49C1398.99,2889.72 1396.47,2885 1393.36,2880.33C1390.26,2875.67 1386.4,2871.64 1381.79,2868.22C1376.3,2864.16 1370.62,2861.3 1364.77,2859.64C1358.91,2857.98 1352.33,2857.76 1345.04,2858.97C1338.38,2860.03 1331.41,2862.95 1324.14,2867.74C1316.87,2872.54 1309.92,2879.41 1303.3,2888.36C1296.32,2897.78 1291.72,2906.63 1289.48,2914.89C1287.25,2923.16 1286.71,2930.76 1287.87,2937.7C1288.99,2944.41 1291.35,2950.4 1294.94,2955.69C1298.54,2960.97 1302.74,2965.39 1307.56,2968.95C1312.57,2972.67 1317.97,2975.37 1323.74,2977.07C1329.51,2978.78 1334.71,2979.76 1339.33,2980.04C1344.28,2980.44 1348.84,2980.51 1353.02,2980.25C1357.2,2979.99 1360.87,2979.71 1364.02,2979.42L1367.48,2981.98L1341.14,3017.58C1337.41,3016.81 1333.1,3015.9 1328.2,3014.85C1323.31,3013.8 1318.51,3012.42 1313.79,3010.72C1307.99,3008.63 1302.75,3006.43 1298.06,3004.11C1293.38,3001.8 1287.4,2997.95 1280.15,2992.59Z" style="fill-rule:nonzero;"/>
        <path d="M1504.25,3118.58L1371.2,3050.59L1387.26,3019.16L1517.75,2954.27L1444.63,2916.91L1460.98,2884.91L1585.47,2948.53L1569.12,2980.52L1439.04,3044.9L1520.6,3086.58L1504.25,3118.58Z" style="fill-rule:nonzero;"/>
        <path d="M1837.1,3024.54L1741.14,3193.53L1691.13,3179.77L1692.88,3059.4L1633.67,3163.96L1583.66,3150.2L1587.63,2955.91L1634.97,2968.93L1626.45,3097.68L1690.47,2984.2L1735.73,2996.65L1731.11,3126.47L1790.99,3011.85L1837.1,3024.54Z" style="fill-rule:nonzero;"/>
        <path d="M1819.83,3207.23L1894.22,3022.82L1945.76,3025.8L1998.43,3217.54L1949.8,3214.73L1940.27,3175.66L1881.16,3172.24L1867.2,3209.96L1819.83,3207.23ZM1931.88,3140.95L1916.27,3077.83L1893.49,3138.74L1931.88,3140.95Z" style="fill-rule:nonzero;"/>
        <path d="M2218.88,3193.39L2161.67,3200.78L2100.75,3138.99L2083.94,3141.16L2092.78,3209.67L2046.1,3215.69L2021.99,3028.85L2097.15,3019.15C2107.52,3017.82 2116.64,3017.3 2124.51,3017.6C2132.37,3017.91 2139.83,3019.68 2146.88,3022.94C2154.12,3026.34 2160.13,3031.08 2164.91,3037.14C2169.69,3043.19 2172.74,3051.28 2174.04,3061.41C2175.89,3075.71 2174.16,3087.73 2168.87,3097.47C2163.58,3107.21 2155.88,3115.41 2145.77,3122.08L2218.88,3193.39ZM2126.62,3073.52C2126.01,3068.84 2124.59,3064.92 2122.36,3061.76C2120.12,3058.61 2116.79,3056.38 2112.37,3055.08C2109.28,3054.2 2105.92,3053.83 2102.28,3053.96C2098.64,3054.09 2094.14,3054.5 2088.79,3055.19L2073.1,3057.21L2079.6,3107.53L2093.02,3105.8C2099.55,3104.95 2105.04,3103.84 2109.49,3102.46C2113.95,3101.07 2117.6,3098.88 2120.45,3095.88C2123.16,3093.15 2125.03,3090.06 2126.07,3086.6C2127.12,3083.15 2127.3,3078.79 2126.62,3073.52Z" style="fill-rule:nonzero;"/>
        <path d="M2294.67,3172.23L2251.36,3026.05L2197.99,3041.87L2187.78,3007.42L2339.9,2962.35L2350.11,2996.8L2296.73,3012.61L2340.04,3158.79L2294.67,3172.23Z" style="fill-rule:nonzero;"/>
        <path d="M2437.76,3124.48L2355.95,2954.79L2470.71,2899.46L2486.31,2931.82L2413.95,2966.71L2428.29,2996.46L2494.96,2964.32L2510.56,2996.68L2443.89,3028.82L2464.55,3071.68L2536.92,3036.78L2552.52,3069.15L2437.76,3124.48Z" style="fill-rule:nonzero;"/>
        <path d="M2739.84,2943.09L2693.39,2976.45L2607.02,2944.25L2607.04,2960.12L2644.17,3011.8L2605.74,3039.41L2495.84,2886.4L2534.27,2858.8L2583.06,2926.72L2583.18,2823.66L2627.68,2791.71L2624.11,2901.9L2739.84,2943.09Z" style="fill-rule:nonzero;"/>
    </g>
    <g transform="matrix(0.835943,0,0,0.761478,-173.009,-370.511)">
        <path d="M2091.41,1391.19L2033.45,1407.15L1994.88,1238.33L1977.55,1358.91L1937.82,1369.85L1870.7,1272.52L1909.27,1441.34L1854.43,1456.43L1796.24,1201.76L1863.39,1183.27L1943.53,1294.83L1966.07,1155L2033.22,1136.51L2091.41,1391.19Z" style="fill-rule:nonzero;"/>
        <path d="M2357.09,1244.29C2358.69,1286.69 2349.62,1320.52 2329.89,1345.77C2310.15,1371.02 2282.31,1384.47 2246.36,1386.1C2210.3,1387.74 2181.54,1376.72 2160.07,1353.04C2138.6,1329.37 2127.07,1296.62 2125.5,1254.81C2123.91,1212.64 2132.93,1178.85 2152.55,1153.42C2172.17,1128 2200,1114.47 2236.06,1112.83C2272.01,1111.2 2300.77,1122.1 2322.34,1145.54C2343.91,1168.97 2355.49,1201.89 2357.09,1244.29ZM2295.13,1246.93C2294.55,1231.31 2292.57,1218.07 2289.22,1207.22C2285.86,1196.37 2281.59,1187.54 2276.4,1180.71C2270.99,1173.78 2265,1168.91 2258.41,1166.09C2251.82,1163.27 2245.04,1162.02 2238.09,1162.33C2230.7,1162.67 2224.07,1164.41 2218.19,1167.56C2212.31,1170.71 2206.72,1176.11 2201.44,1183.77C2196.77,1190.8 2193.13,1200.03 2190.5,1211.44C2187.88,1222.86 2186.86,1236.37 2187.45,1252C2188.06,1268.09 2190,1281.38 2193.29,1291.88C2196.58,1302.38 2200.88,1311.1 2206.18,1318.03C2211.59,1325.08 2217.61,1330.02 2224.26,1332.83C2230.9,1335.65 2237.7,1336.9 2244.66,1336.58C2251.72,1336.26 2258.5,1334.28 2265.01,1330.63C2271.52,1326.98 2277.05,1321.52 2281.59,1314.26C2286.44,1306.39 2290.07,1297.31 2292.47,1287.02C2294.86,1276.74 2295.75,1263.37 2295.13,1246.93Z" style="fill-rule:nonzero;"/>
        <path d="M2446.52,1387.11L2470.86,1176.31L2400.74,1166.55L2406.48,1116.87L2606.31,1144.68L2600.57,1194.36L2530.46,1184.6L2506.12,1395.4L2446.52,1387.11Z" style="fill-rule:nonzero;"/>
        <path d="M2847.65,1356.56C2836.28,1397.12 2817.45,1425.69 2791.18,1442.27C2764.9,1458.85 2734.57,1461.33 2700.18,1449.71C2665.69,1438.05 2641.92,1417.13 2628.87,1386.95C2615.82,1356.77 2614.91,1321.69 2626.13,1281.69C2637.44,1241.35 2656.2,1212.79 2682.42,1196.01C2708.64,1179.22 2739,1176.66 2773.49,1188.32C2807.88,1199.94 2831.68,1220.75 2844.89,1250.74C2858.11,1280.73 2859.03,1316 2847.65,1356.56ZM2788.44,1336.36C2792.63,1321.42 2794.79,1308.22 2794.93,1296.77C2795.06,1285.31 2793.72,1275.41 2790.9,1267.08C2787.91,1258.57 2783.73,1251.78 2778.38,1246.7C2773.02,1241.63 2767.01,1237.98 2760.36,1235.73C2753.3,1233.34 2746.52,1232.56 2740.01,1233.37C2733.51,1234.19 2726.61,1237.23 2719.3,1242.51C2712.76,1247.44 2706.53,1254.8 2700.58,1264.6C2694.64,1274.4 2689.58,1286.77 2685.38,1301.72C2681.07,1317.11 2678.86,1330.36 2678.78,1341.46C2678.69,1352.56 2680.09,1362.35 2682.98,1370.83C2685.93,1379.46 2690.12,1386.31 2695.53,1391.4C2700.93,1396.49 2706.96,1400.16 2713.62,1402.4C2720.37,1404.69 2727.37,1405.3 2734.61,1404.24C2741.86,1403.19 2748.73,1400.07 2755.22,1394.88C2762.18,1389.24 2768.36,1382.01 2773.74,1373.19C2779.13,1364.37 2784.03,1352.09 2788.44,1336.36Z" style="fill-rule:nonzero;"/>
    </g>
    <g transform="matrix(1,0,0,1,-58.0064,788.85)">
        <path d="M320.7,1035.45C309.714,1035.45 300.372,1034.32 292.675,1032.04C284.978,1029.77 277.738,1026.97 270.956,1023.65L270.956,998.424L272.381,998.424C279.027,1004.66 286.554,1009.5 294.964,1012.92C303.373,1016.35 311.477,1018.06 319.276,1018.06C330.398,1018.06 338.807,1015.74 344.504,1011.09C350.2,1006.44 353.049,1000.32 353.049,992.728C353.049,986.692 351.557,981.775 348.573,977.978C345.589,974.18 340.842,971.365 334.331,969.534C329.652,968.178 325.379,967.059 321.514,966.177C317.648,965.296 312.799,964.109 306.967,962.617C301.745,961.261 297.066,959.531 292.929,957.429C288.792,955.327 285.13,952.58 281.943,949.189C278.823,945.866 276.399,941.95 274.669,937.44C272.94,932.93 272.075,927.725 272.075,921.825C272.075,909.55 276.856,899.259 286.419,890.952C295.981,882.644 308.188,878.49 323.04,878.49C331.517,878.49 339.536,879.338 347.098,881.033C354.659,882.729 361.661,885.136 368.104,888.256L368.104,912.365L366.578,912.365C361.763,907.957 355.592,904.108 348.064,900.819C340.536,897.53 332.636,895.885 324.362,895.885C315.003,895.885 307.442,898.072 301.677,902.447C295.913,906.821 293.031,912.568 293.031,919.689C293.031,926.132 294.726,931.252 298.117,935.049C301.508,938.847 306.425,941.628 312.867,943.391C317.14,944.544 322.362,945.849 328.533,947.307C334.704,948.765 339.824,950.105 343.893,951.325C354.337,954.513 361.967,959.328 366.782,965.77C371.597,972.213 374.004,980.148 374.004,989.574C374.004,995.474 372.8,1001.31 370.393,1007.07C367.985,1012.84 364.611,1017.72 360.271,1021.72C355.388,1026.13 349.878,1029.52 343.741,1031.89C337.603,1034.27 329.923,1035.45 320.7,1035.45Z" style="fill-rule:nonzero;"/>
        <path d="M439.116,1032.71L380.319,1032.71L380.319,1017.24L399.647,1017.24L399.647,896.699L380.319,896.699L380.319,881.237L439.116,881.237L439.116,896.699L419.789,896.699L419.789,1017.24L439.116,1017.24L439.116,1032.71Z" style="fill-rule:nonzero;"/>
        <path d="M563.941,1032.71L541.358,1032.71L474.423,902.09L474.423,1032.71L455.604,1032.71L455.604,881.237L484.189,881.237L545.122,1001.17L545.122,881.237L563.941,881.237L563.941,1032.71Z" style="fill-rule:nonzero;"/>
        <path d="M645.533,1035.45C635.632,1035.45 626.528,1033.79 618.22,1030.47C609.912,1027.14 602.741,1022.19 596.705,1015.62C590.669,1009.04 585.99,1000.83 582.667,990.998C579.344,981.165 577.682,969.873 577.682,957.124C577.682,944.442 579.293,933.388 582.514,923.961C585.736,914.535 590.432,906.329 596.603,899.344C602.639,892.562 609.794,887.391 618.067,883.831C626.341,880.27 635.598,878.49 645.838,878.49C650.925,878.49 655.689,878.863 660.131,879.609C664.573,880.355 668.693,881.305 672.49,882.457C675.746,883.475 679.086,884.746 682.51,886.272C685.935,887.798 689.309,889.477 692.632,891.308L692.632,915.62L691.004,915.62C689.241,913.992 686.969,912.026 684.189,909.72C681.408,907.414 678.017,905.142 674.016,902.904C670.151,900.802 665.946,899.073 661.402,897.716C656.859,896.36 651.603,895.682 645.635,895.682C639.192,895.682 633.089,897.004 627.324,899.649C621.56,902.294 616.508,906.193 612.167,911.347C607.895,916.502 604.572,922.978 602.198,930.777C599.825,938.576 598.638,947.358 598.638,957.124C598.638,967.5 599.892,976.435 602.402,983.928C604.911,991.422 608.336,997.746 612.676,1002.9C616.881,1007.92 621.831,1011.7 627.528,1014.24C633.224,1016.79 639.26,1018.06 645.635,1018.06C651.467,1018.06 656.859,1017.35 661.809,1015.92C666.76,1014.5 671.168,1012.7 675.034,1010.53C678.763,1008.43 681.985,1006.27 684.697,1004.07C687.41,1001.87 689.546,999.984 691.106,998.424L692.632,998.424L692.632,1022.43C689.309,1023.99 686.172,1025.48 683.222,1026.91C680.272,1028.33 676.695,1029.72 672.49,1031.08C668.082,1032.5 663.996,1033.59 660.232,1034.33C656.469,1035.08 651.569,1035.45 645.533,1035.45Z" style="fill-rule:nonzero;"/>
        <path d="M703.118,1032.71L703.118,881.237L797.824,881.237L797.824,899.14L723.259,899.14L723.259,940.644L792.738,940.644L792.738,958.548L723.259,958.548L723.259,1014.8L797.824,1014.8L797.824,1032.71L703.118,1032.71Z" style="fill-rule:nonzero;"/>
    </g>
    <g transform="matrix(1,0,0,1,2599.55,788.85)">
        <path d="M367.697,1032.71L274.212,1032.71L274.212,1011.45C280.925,1005.07 287.266,998.967 293.234,993.135C299.202,987.302 305.034,981.233 310.731,974.926C322.26,962.244 330.127,952.088 334.331,944.459C338.536,936.83 340.638,928.946 340.638,920.808C340.638,916.603 339.977,912.907 338.655,909.72C337.332,906.532 335.518,903.888 333.212,901.785C330.839,899.751 328.092,898.225 324.972,897.208C321.853,896.19 318.428,895.682 314.698,895.682C311.104,895.682 307.459,896.14 303.763,897.055C300.067,897.971 296.523,899.107 293.132,900.463C290.284,901.616 287.538,903.006 284.893,904.634C282.248,906.261 280.112,907.651 278.484,908.804L277.365,908.804L277.365,887.239C281.57,885.136 287.419,883.085 294.913,881.084C302.406,879.084 309.51,878.083 316.224,878.083C330.33,878.083 341.384,881.83 349.387,889.324C357.389,896.818 361.39,906.973 361.39,919.791C361.39,925.691 360.695,931.15 359.305,936.168C357.915,941.187 355.999,945.832 353.557,950.105C351.048,954.513 348.03,958.887 344.504,963.227C340.977,967.568 337.247,971.84 333.314,976.045C326.939,982.962 319.835,990.151 312.003,997.61C304.17,1005.07 297.914,1010.97 293.234,1015.31L367.697,1015.31L367.697,1032.71Z" style="fill-rule:nonzero;"/>
        <path d="M473.805,956.92C473.805,984.115 469.854,1004.07 461.954,1016.79C454.053,1029.5 441.863,1035.86 425.383,1035.86C408.701,1035.86 396.46,1029.38 388.661,1016.43C380.862,1003.48 376.962,983.708 376.962,957.124C376.962,929.794 380.913,909.805 388.813,897.157C396.714,884.509 408.904,878.185 425.383,878.185C442.066,878.185 454.307,884.729 462.106,897.818C469.905,910.907 473.805,930.607 473.805,956.92ZM447.763,1003.1C449.73,998.085 451.12,991.744 451.934,984.081C452.748,976.418 453.154,967.364 453.154,956.92C453.154,946.544 452.748,937.525 451.934,929.861C451.12,922.198 449.696,915.823 447.661,910.737C445.627,905.583 442.829,901.667 439.269,898.988C435.709,896.309 431.08,894.97 425.383,894.97C419.755,894.97 415.126,896.309 411.498,898.988C407.87,901.667 405.004,905.651 402.902,910.941C400.868,916.095 399.477,922.605 398.731,930.472C397.985,938.339 397.612,947.223 397.612,957.124C397.612,967.703 397.935,976.553 398.579,983.674C399.223,990.795 400.63,997.17 402.8,1002.8C404.767,1008.02 407.565,1012.04 411.193,1014.85C414.821,1017.67 419.551,1019.08 425.383,1019.08C431.012,1019.08 435.641,1017.74 439.269,1015.06C442.897,1012.38 445.729,1008.39 447.763,1003.1Z" style="fill-rule:nonzero;"/>
        <path d="M570.757,1032.71L496.904,1032.71L496.904,1017.24L524.37,1017.24L524.37,915.722L496.904,915.722L496.904,901.887C507.28,901.887 514.927,900.412 519.843,897.462C524.76,894.512 527.524,888.934 528.134,880.728L543.902,880.728L543.902,1017.24L570.757,1017.24L570.757,1032.71Z" style="fill-rule:nonzero;"/>
        <path d="M685.511,903.922L620,1032.71L598.333,1032.71L667.709,899.039L589.381,899.039L589.381,881.237L685.511,881.237L685.511,903.922Z" style="fill-rule:nonzero;"/>
    </g>
    <g transform="matrix(0.981436,0,0,0.981436,-61.7256,-1317.44)">
        <path d="M676.21,2889.79C739.078,2572.26 927.806,2299.77 1188.15,2126.56M799.712,3696.26C747.614,3601.13 708.07,3498.17 683.315,3389.61M985.167,3949.38C912.856,3873.78 850.353,3788.72 799.712,3696.26M1188.15,2126.56C1214.52,2109.02 1241.61,2092.5 1269.38,2077.05M2429.47,2077.05C2448.61,2087.7 2467.43,2098.85 2485.9,2110.5C2756.32,2280.95 2953.83,2556.71 3020.67,2880.01M3023.67,3350.99C2975.74,3598.91 2851.14,3819.65 2675.56,3987.5" style="fill:rgb(235,235,235);fill-opacity:0;"/>
    </g>
    <g transform="matrix(0.981436,0,0,0.981436,-61.7256,-1317.44)">
        <path d="M1185.96,2123.26C1212.41,2105.66 1239.59,2089.09 1267.46,2073.59L1271.31,2080.52C1243.63,2095.91 1216.62,2112.38 1190.35,2129.86C930.864,2302.5 742.758,2574.09 680.098,2890.56L672.321,2889.02C735.398,2570.44 924.748,2297.05 1185.96,2123.26ZM803.189,3694.35C853.662,3786.51 915.959,3871.29 988.032,3946.64L982.302,3952.12C909.752,3876.27 847.043,3790.93 796.235,3698.16C743.963,3602.72 704.287,3499.41 679.45,3390.49L687.18,3388.73C711.852,3496.93 751.264,3599.55 803.189,3694.35ZM2427.54,2080.52L2431.4,2073.59C2450.6,2084.27 2469.48,2095.46 2488.01,2107.14C2759.33,2278.16 2957.49,2554.83 3024.55,2879.21L3016.78,2880.82C2950.17,2558.58 2753.31,2283.74 2483.79,2113.85C2465.37,2102.24 2446.62,2091.13 2427.54,2080.52ZM3019.78,3350.24L3027.57,3351.74C2979.48,3600.49 2854.46,3821.96 2678.3,3990.36L2672.82,3984.63C2847.82,3817.34 2972.01,3597.34 3019.78,3350.24Z"/>
    </g>
    <g transform="matrix(0.976726,0,0,0.976726,40.8212,-651.488)">
        <path d="M1240.85,1936.14L1236.05,1931.28C1369.29,1799.89 1552.21,1718.75 1753.94,1718.75C1955.17,1718.75 2137.69,1799.49 2270.85,1930.31L2266.06,1935.19C2134.14,1805.58 1953.3,1725.59 1753.94,1725.59C1554.08,1725.59 1372.85,1805.97 1240.85,1936.14Z"/>
    </g>
    <g transform="matrix(1.03426,0,0,1,-82.6513,-751.723)">
        <g transform="matrix(1,0,0,1,-4.05985,-12.1796)">
            <path d="M1093.61,2650.07L239.105,2650.07L239.105,2374L828.706,2373.62M2730.74,2373.47L3320.53,2374L3320.53,2650.07L2542.08,2650.07" style="fill:rgb(235,235,235);fill-opacity:0;"/>
        </g>
        <g transform="matrix(1,0,0,1,-4.05985,-12.1796)">
            <path d="M1093.61,2629.23L1093.61,2670.9L239.105,2670.9L218.962,2650.07L218.962,2374L239.093,2353.16L828.694,2352.79L828.719,2394.45C828.719,2394.45 259.249,2394.82 259.249,2394.82L259.249,2629.23L1093.61,2629.23ZM2730.72,2394.3L2730.76,2352.64L3320.55,2353.16L3340.68,2374L3340.68,2650.07L3320.53,2670.9L2542.08,2670.9L2542.08,2629.23C2542.08,2629.23 3178.25,2629.23 3300.39,2629.23C3300.39,2629.23 3300.39,2394.81 3300.39,2394.81L2730.72,2394.3Z"/>
        </g>
    </g>
    <g transform="matrix(1,0,0,1,0,-685.661)">
        <g transform="matrix(1.21469,0,0,1.16412,-245.146,-312.489)">
            <path d="M1141.88,2456.53L1141.88,1900.19" style="fill:none;stroke:black;stroke-width:23.25px;"/>
        </g>
        <g transform="matrix(1.21469,0,0,0.76628,-175.817,551.14)">
            <path d="M1141.88,2456.53L1141.88,1900.19" style="fill:none;stroke:black;stroke-width:27.24px;"/>
        </g>
        <g transform="matrix(1.21469,0,0,0.0765893,-245.146,2437.01)">
            <path d="M1141.88,2456.53L1141.88,1904.03" style="fill:none;stroke:black;stroke-width:32.14px;"/>
        </g>
        <g transform="matrix(0.786982,0,0,0.0496214,243.242,2561.01)">
            <path d="M1141.88,2456.53L1141.88,1904.03" style="fill:none;stroke:black;stroke-width:49.61px;"/>
        </g>
        <g transform="matrix(0.786982,0,0,0.0303586,243.242,2645.57)">
            <path d="M1141.88,2456.53L1141.88,1904.03" style="fill:none;stroke:black;stroke-width:49.67px;"/>
        </g>
        <g transform="matrix(1.21469,0,0,0.102096,967.582,2342.71)">
            <path d="M1141.88,2456.53L1141.88,1904.03" style="fill:none;stroke:black;stroke-width:32.09px;"/>
        </g>
        <g transform="matrix(0.786982,0,0,0.0661468,1455.97,2508.01)">
            <path d="M1141.88,2456.53L1141.88,1771" style="fill:none;stroke:black;stroke-width:49.53px;"/>
        </g>
        <path d="M1141.88,1904.03C1143.32,1922.22 1605.25,2297.37 1605.25,2297.37" style="fill:none;stroke:black;stroke-width:5.57px;"/>
        <g transform="matrix(1,0,0,1,0,-23)">
            <path d="M1141.88,1927.03L1753.94,2317.96" style="fill:none;stroke:black;stroke-width:5.57px;"/>
        </g>
        <path d="M1141.88,1904.03L1486.29,2317.96" style="fill:none;stroke:black;stroke-width:5.57px;"/>
        <path d="M1141.88,1904.03L1364.17,2296.37" style="fill:none;stroke:black;stroke-width:5.57px;"/>
        <path d="M1141.88,1904.03L1253.03,2296.37" style="fill:none;stroke:black;stroke-width:5.57px;"/>
        <path d="M1141.88,1904.03L1077.81,2296.37" style="fill:none;stroke:black;stroke-width:5.57px;"/>
        <path d="M1141.88,1904.03L1023.79,2296.37" style="fill:none;stroke:black;stroke-width:5.57px;"/>
        <path d="M1141.88,1904.03L945.844,2296.37" style="fill:none;stroke:black;stroke-width:5.57px;"/>
        <path d="M1141.88,1904.03L839.314,2296.37" style="fill:none;stroke:black;stroke-width:5.57px;"/>
    </g>
    <g transform="matrix(-1,0,0,1,3549.49,-684.661)">
        <g transform="matrix(-1,0,0,1,3549.49,-24)">
            <path d="M1151.13,1853.46L1040.9,1743.23" style="fill:none;stroke:black;stroke-width:14.41px;"/>
            <path d="M1753.94,1609.87L1753.94,1429.72L1753.94,1609.87Z" style="fill:none;stroke:black;stroke-width:14.41px;"/>
            <path d="M1430.07,1669.25L1363.74,1508.01" style="fill:none;stroke:black;stroke-width:14.41px;"/>
            <path d="M2077.16,1669.25L2143.38,1508.01" style="fill:none;stroke:black;stroke-width:14.41px;"/>
            <path d="M2356.85,1853.46L2465.42,1739.26" style="fill:none;stroke:black;stroke-width:14.41px;"/>
            <path d="M965.87,2112.1L808.268,2043.26L965.87,2112.1Z" style="fill:none;stroke:black;stroke-width:14.41px;"/>
            <path d="M2694.07,2043.26L2539.37,2111.21" style="fill:none;stroke:black;stroke-width:14.41px;"/>
        </g>
        <g transform="matrix(1,0,0,1,53,0)">
            <g transform="matrix(1,0,0,0.956561,0,82.7094)">
                <path d="M1141.88,2528.68L1141.88,1898.31" style="fill:none;stroke:black;stroke-width:28.27px;"/>
            </g>
            <g transform="matrix(1.055,0,0,0.68569,6.85711,698.374)">
                <path d="M1141.88,2528.68L1141.88,1898.31" style="fill:none;stroke:black;stroke-width:31.09px;"/>
            </g>
            <path d="M1141.88,1904.03C1143.32,1922.22 1602,2296.37 1602,2296.37" style="fill:none;stroke:black;stroke-width:5.57px;"/>
            <path d="M1141.88,1904.03L1486.29,2317.96" style="fill:none;stroke:black;stroke-width:5.57px;"/>
            <path d="M1141.88,1904.03L1364.17,2296.37" style="fill:none;stroke:black;stroke-width:5.57px;"/>
            <path d="M1141.88,1904.03L1253.03,2296.37" style="fill:none;stroke:black;stroke-width:5.57px;"/>
            <path d="M1141.88,1904.03L1077.81,2296.37" style="fill:none;stroke:black;stroke-width:5.57px;"/>
            <path d="M1141.88,1904.03L1023.79,2296.37" style="fill:none;stroke:black;stroke-width:5.57px;"/>
            <g transform="matrix(-1,0,0,1,3496.49,-24)">
                <path d="M2354.61,1928.03L1770.25,2317.96" style="fill:none;stroke:black;stroke-width:5.57px;"/>
            </g>
            <path d="M1141.88,1904.03L945.444,2290.75" style="fill:none;stroke:black;stroke-width:5.57px;"/>
            <path d="M1141.88,1904.03L945.444,2153.18L832.879,2290.75" style="fill:none;stroke:black;stroke-width:5.57px;"/>
        </g>
    </g>
    <g transform="matrix(1.46598,0,0,1.46598,-787.308,-2174.63)">
        <g transform="matrix(0.526047,0,0,0.526047,1142.67,1693.02)">
            <path d="M1988.28,2519.64C1989.69,2518.82 1995.86,2515.11 2001.13,2508.94C2005.43,2503.94 2008.83,2497.89 2008.59,2490.66L1984.61,2408.98C1978.87,2403.12 1970.9,2401.56 1964.02,2401.56C1956.13,2401.56 1949.69,2403.63 1949.69,2403.63L1696.25,2516.05L1675.35,2525.31L1568.71,2572.61L1562.46,2575.39L1465.74,2618.28C1465.74,2618.28 1444.92,2629.76 1445.55,2647.42L1470.82,2705.54C1476.48,2711.32 1484.34,2712.85 1491.13,2712.85C1499.14,2712.85 1505.7,2710.74 1505.7,2710.74L1510.94,2708.67L1558.55,2689.8L1752.23,2613.12L1871.64,2565.82L1938.44,2539.37L1988.28,2519.64Z" style="fill:rgb(27,25,24);"/>
        </g>
        <g transform="matrix(0.526047,0,0,0.526047,1142.67,1868.75)">
            <path d="M1998.4,2204.18L1997.27,2204.8L1996.05,2205.27L1945.63,2225.23C1960.82,2275.86 1955.82,2332.34 1926.68,2381.29C1871.56,2473.94 1751.68,2504.49 1659.06,2449.37C1625.55,2429.41 1600.31,2400.94 1584.22,2368.36L1519.06,2394.14C1540.74,2440.58 1576.09,2481.21 1623.4,2509.33C1749.1,2584.14 1911.8,2542.69 1986.64,2416.87C2027.85,2347.62 2033.75,2267.07 2009.73,2196.21C2004.34,2200.82 1999.61,2203.51 1998.4,2204.18Z" style="fill:rgb(27,25,24);"/>
        </g>
        <g transform="matrix(0.526047,0,0,0.526047,1142.67,1444.38)">
            <path d="M2097.73,2762.34L2037.85,2762.34L2086.02,2824.73L2097.73,2824.73C2111.05,2824.73 2121.88,2813.95 2121.88,2800.62L2121.88,2786.48C2121.88,2773.16 2111.05,2762.34 2097.73,2762.34Z" style="fill:rgb(27,25,24);"/>
        </g>
        <g transform="matrix(0.526047,0,0,0.526047,1142.67,1280.05)">
            <path d="M889.801,3034.45L1305.74,3034.45C1305.74,3034.45 1352.66,3026.87 1346.02,3018.79C1319.92,2986.87 1255.74,2909.65 1235.12,2901.21C1209.3,2890.62 1030,2865 899.262,2895.93C846.172,2908.47 831.801,2964.1 825.59,3002.5C823.949,3012.65 889.801,3034.45 889.801,3034.45Z" style="fill:rgb(27,25,24);"/>
        </g>
        <g transform="matrix(0.526047,0,0,0.526047,1142.67,1288.88)">
            <path d="M1876.56,2962C1848.79,2928.6 1705.35,2864.96 1651.52,2864.96C1650.66,2864.96 1649.8,2864.96 1648.98,2865C1627.3,2865.9 1629.8,2904.03 1618.91,2926.8C1613.83,2937.35 1602.62,2941.57 1590.66,2942.66C1570.47,2944.54 1544.73,2944.93 1517.34,2944.93C1499.26,2944.93 1480.43,2944.77 1461.95,2944.77C1418.91,2944.77 1377.77,2945.63 1352.38,2951.49C1329.84,2956.68 1344.02,2963.64 1355.94,2976.21C1365.82,2986.68 1377.85,2999.22 1386.05,3007.74C1391.76,3013.68 1408.87,3017.7 1408.87,3017.7L1832.11,3017.7C1832.11,3017.7 1900.98,2991.33 1876.56,2962Z" style="fill:rgb(27,25,24);"/>
        </g>
        <g transform="matrix(0.526047,0,0,0.526047,1142.67,1616.6)">
            <path d="M1531.37,2625.38C1512.27,2657.49 1500.78,2692.02 1496.25,2726.87L1576.95,2691.05C1580.9,2680.85 1585.55,2670.77 1591.29,2661.09C1606.13,2636.13 1625.74,2615.81 1648.13,2600.38L1624.14,2532.81C1587.11,2554.68 1554.88,2585.85 1531.37,2625.38Z" style="fill:rgb(27,25,24);"/>
        </g>
        <g transform="matrix(0.526047,0,0,0.526047,1142.67,1507.34)">
            <path d="M1708.4,2708.47L1685.98,2644.02C1680.2,2627.46 1662.11,2618.71 1645.51,2624.45C1628.95,2630.19 1620.2,2648.32 1625.94,2664.88L1689.88,2848.67L1748.16,2822.81L1731.76,2775.7C1764.14,2771.05 1797.77,2774.33 1829.57,2786.72L1910.2,2750.93C1905.08,2747.38 1899.88,2743.94 1894.45,2740.74C1836.25,2706.09 1770.08,2696.4 1708.4,2708.47Z" style="fill:rgb(27,25,24);"/>
        </g>
        <g transform="matrix(0.526047,0,0,0.526047,1142.67,1527.05)">
            <path d="M1444.18,2818.2L1481.25,2812.89C1481.25,2812.89 1550.08,2675.23 1597.7,2648.75L1597.7,2611.72L1528.91,2611.72L1444.18,2818.2Z" style="fill:rgb(27,25,24);"/>
        </g>
        <g transform="matrix(0.526047,0,0,0.526047,1142.67,1425.7)">
            <path d="M1248.83,2824.64C1248.79,2802.41 1233.44,2784.37 1198.05,2784.41L1061.21,2784.48C1025.82,2784.52 1010.47,2802.57 1010.51,2824.84L1010.51,2838.2L1248.83,2838L1248.83,2824.64Z" style="fill:rgb(27,25,24);"/>
        </g>
        <g transform="matrix(-0.00115109,0.526046,0.526046,0.00115109,285.96,2333.69)">
            <path d="M1120.93,2642.44L1139.21,2642.44L1138.49,2879.12L1120.21,2879.04L1120.93,2642.44Z" style="fill:rgb(27,25,24);"/>
        </g>
        <g transform="matrix(-0.526047,0.000355558,0.000355558,0.526047,2330.28,1509.81)">
            <rect x="1011.36" y="2721.8" width="236.692" height="18.32" style="fill:rgb(27,25,24);"/>
        </g>
        <g transform="matrix(-0.526047,0.000464214,0.000464214,0.526047,2330,1541.01)">
            <path d="M1016.4,2692.05L1243.04,2692.05L1235.09,2710.34L1024.35,2710.36L1016.4,2692.05Z" style="fill:rgb(27,25,24);"/>
        </g>
        <g transform="matrix(0.208968,-0.482761,-0.482761,-0.208968,2790.54,4081.79)">
            <path d="M1158.13,2582.92L1178.09,2582.92L1098.18,2767.15L1084.57,2752.59L1158.13,2582.92Z" style="fill:rgb(27,25,24);"/>
        </g>
        <g transform="matrix(0.452104,0.268938,0.268938,-0.452104,529.585,3905.18)">
            <ellipse cx="1070.63" cy="2574" rx="70.798" ry="70.837" style="fill:rgb(27,25,24);"/>
        </g>
        <g transform="matrix(0.526047,0,0,0.526047,1142.67,1676.64)">
            <path d="M1317.3,2559.03C1328.63,2541.1 1325.66,2523.36 1338.28,2505.82L1186.84,2505.82C1176.91,2505.82 1158.44,2522.93 1152.97,2523.25C1152.97,2523.25 1174.14,2560.28 1163.55,2586.76C1152.97,2613.25 1126.48,2639.73 1126.48,2639.73L1237.7,2639.73C1266.45,2639.73 1299.53,2604.93 1317.3,2559.03Z" style="fill:rgb(27,25,24);"/>
        </g>
        <g transform="matrix(0.526047,0,0,0.526047,1142.67,1429.54)">
            <path d="M951.762,2823.51C978.238,2812.93 967.66,2765.27 856.449,2786.44L882.93,2850C882.93,2850 925.27,2834.1 951.762,2823.51Z" style="fill:rgb(27,25,24);"/>
        </g>
        <g transform="matrix(0.526047,0,0,0.526047,1142.67,1490.82)">
            <path d="M1380.63,2696.45C1380.63,2696.45 1322.38,2675.27 1285.35,2712.34C1285.35,2712.34 1274.73,2823.52 1322.38,2807.66C1370.04,2791.76 1380.63,2696.45 1380.63,2696.45Z" style="fill:rgb(27,25,24);"/>
        </g>
        <g transform="matrix(0.526047,0,0,0.526047,1142.67,1136.31)">
            <path d="M890.039,3032.86C876.988,3025.08 855.941,3036.45 843.051,3058.21C830.121,3079.97 830.23,3103.87 843.281,3111.65C852.109,3116.84 864.531,3113.25 875.629,3103.72L933.359,3140.4C944.77,3147.62 959.84,3144.26 967.109,3132.86C974.34,3121.45 970.941,3106.37 959.57,3099.15L899.41,3060.94C901.09,3048.33 898.012,3037.58 890.039,3032.86Z" style="fill:rgb(27,25,24);"/>
        </g>
        <g transform="matrix(0.526047,0,0,0.526047,1142.67,1226.07)">
            <path d="M734.961,2987.11C734.77,2987.5 734.609,2987.89 734.379,2988.32C732.539,2992.15 729.961,2996.95 727.891,3000.7C727.621,3001.21 727.379,3001.64 727.109,3002.11L717.031,2996.8L695.039,3036.91L689.879,3032.38C700.512,3015.86 705.391,3000.47 705.391,2986.05C705.391,2971.52 700.469,2958.79 693.871,2947.73C687.27,2936.6 678.949,2926.8 671.09,2917.19C665.699,2910.62 663.59,2903.67 663.551,2896.48C663.52,2887.62 667.191,2878.44 672.852,2871.87C678.551,2865.23 685.738,2861.56 692.34,2861.64C697.539,2861.56 705.82,2863.48 714.609,2866.72C718.48,2868.12 722.461,2869.8 726.449,2871.6C725.391,2873.4 724.34,2875.2 723.238,2877.03C717.148,2887.58 711.02,2898.63 706.172,2908.44C703.75,2913.36 701.68,2917.93 700.039,2922.3C699.219,2924.49 698.52,2926.64 697.93,2928.91C697.379,2931.21 696.84,2933.55 696.84,2936.87C696.879,2939.26 697.031,2942.3 698.871,2946.29C700.66,2949.96 702.422,2952.15 704.301,2954.41C707.5,2958.28 711.211,2961.99 715.121,2965.94C720.98,2971.72 727.301,2977.89 731.68,2982.97C733.09,2984.53 734.102,2985.94 734.961,2987.11ZM610.66,3001.09C603.199,3001.09 597.148,2995 597.148,2987.58C597.148,2980.08 603.199,2974.02 610.66,2974.02C618.129,2974.02 624.18,2980.08 624.18,2987.58C624.18,2995 618.129,3001.09 610.66,3001.09ZM826.68,2989.69L826.25,2990.59C823.398,2996.37 825.629,3003.16 831.25,3005.98C836.84,3008.79 843.672,3006.52 846.449,3000.9C846.641,3000.55 848.051,2997.66 849.531,2993.24C851.02,2988.83 852.578,2982.93 852.578,2976.13C852.578,2973.4 852.301,2970.51 851.559,2967.54C850.27,2962.07 846.949,2957.46 843.48,2954.41C838.199,2949.77 832.891,2947.34 827.5,2944.1C822.07,2940.86 816.371,2937.15 810.309,2931.09C806.641,2927.27 805.82,2924.34 805.738,2920.51C805.629,2915.43 808.359,2908.75 811.559,2903.63C813.129,2901.09 814.73,2898.91 815.898,2897.42L817.07,2896.02C818.871,2896.99 820.699,2897.93 822.539,2898.91C824.02,2892.15 826.641,2885.04 830.738,2878.12C833.281,2873.83 836.211,2870.08 839.262,2866.68C834.531,2864.18 829.801,2861.72 825.27,2859.34C810.309,2851.41 796.84,2844.26 787.148,2839.1C777.422,2833.95 771.52,2830.78 771.48,2830.74L756.68,2822.81L747.621,2836.99C747.578,2837.07 743.711,2843.12 738.238,2851.99C733.051,2849.65 727.73,2847.38 722.379,2845.43C712.148,2841.72 702.109,2838.98 692.34,2838.95C677.539,2838.98 664.648,2846.56 655.629,2857.11C646.602,2867.7 640.941,2881.6 640.898,2896.48C640.859,2908.44 644.77,2920.98 653.59,2931.6C661.559,2941.29 669.102,2950.39 674.379,2959.3C679.691,2968.24 682.699,2976.72 682.699,2986.05C682.699,2991.17 681.762,2996.8 679.449,3003.16C678.672,2986.52 671.172,2956.33 632.699,2927.11C602.809,2904.37 563.199,2907.07 563.199,2907.07C563.199,2907.07 560.898,2909.37 558.398,2915.08C546.91,2921.72 538.051,2951.72 537.699,2987.85C537.34,3023.91 545.629,3054.06 556.949,3060.98C560.23,3066.68 565,3070.82 571.988,3071.02C582.27,3071.29 605.352,3072.34 630.352,3060.35L590.121,3025.04C581.328,3017.34 580.43,3003.95 588.16,2995.16C588.75,2994.49 589.449,2993.95 590.078,2993.36C590.551,2998.59 592.93,3003.67 597.191,3007.38L680.27,3080.31L670.898,3095.94L665.309,3091.05L633.398,3149.26L688.98,3179.26L773.52,3026.8L759.141,3019.14C760.16,3017.38 761.211,3015.43 762.379,3013.28C764.102,3010.04 765.941,3006.48 767.578,3003.09C769.18,2999.53 770.59,2996.64 771.719,2992.34C772.191,2990.31 772.422,2988.36 772.379,2986.56C772.34,2980.74 770.66,2976.72 769.02,2973.28C766.02,2967.38 762.27,2962.85 758.238,2958.2C752.27,2951.41 745.43,2944.88 739.922,2939.37C737.809,2937.27 736.02,2935.43 734.531,2933.79C734.73,2933.28 734.922,2932.73 735.199,2932.15C737.539,2926.6 741.48,2918.79 746.02,2910.55C750,2903.24 754.449,2895.59 758.711,2888.36C762.109,2890.35 765.199,2892.19 767.422,2893.55C769.102,2894.61 770.391,2895.43 771.289,2895.98L772.578,2896.84L784.449,2878.79C788.281,2880.82 792.34,2882.97 796.68,2885.27C795.309,2887.07 793.828,2889.18 792.191,2891.76C787.93,2898.91 783.129,2908.63 783.051,2920.51C782.93,2929.34 786.371,2939.37 794.262,2947.15C804.691,2957.58 814.922,2963.05 821.559,2966.87C824.879,2968.75 827.23,2970.27 828.32,2971.29C829.41,2972.34 829.34,2972.38 829.57,2973.05C829.77,2973.87 829.879,2974.92 829.879,2976.13C829.922,2979.18 829.02,2983.12 828.012,2986.09C827.539,2987.58 827.031,2988.83 826.68,2989.69Z" style="fill:rgb(27,25,24);"/>
        </g>
        <g transform="matrix(0.526047,0,0,0.526047,1142.67,1470.6)">
            <path d="M319.41,2808.12L363.789,2808.12C372.809,2808.12 390.66,2803.08 396.48,2800.89C422.461,2791.2 450.039,2786.2 477.852,2786.2C502.969,2786.2 528.238,2790.27 552.73,2798.7C556.371,2792.42 558.949,2787.92 559.961,2786.05C571.762,2764.45 564.84,2748.24 560.512,2741.32C533.398,2733.2 505.629,2729.1 478.051,2729.1C412.66,2729.1 348.359,2751.32 296.68,2792.81C290.66,2797.65 299.34,2808.12 319.41,2808.12Z" style="fill:rgb(27,25,24);"/>
        </g>
        <g transform="matrix(0.526047,0,0,0.526047,1142.67,1662.36)">
            <path d="M331.52,2901.67C457.191,2976.48 619.879,2935.03 694.73,2809.21C708.672,2785.78 718.59,2761.05 724.648,2735.82C718.711,2730.46 712.301,2723.28 705.898,2713.67C691.48,2692.07 690.391,2677.49 691.051,2667.22C695.199,2602.18 669.961,2540.42 623.75,2497.26L632.77,2481.64C685.898,2529.6 713.16,2598.9 708.75,2668.35C708.359,2674.17 707.969,2684.84 720.629,2703.82C738.359,2730.42 754.961,2733.78 754.961,2733.78C786.641,2624.53 750.629,2505.03 661.801,2431.36L664.488,2426.71C677.621,2434.37 695.27,2441.13 716.762,2441.13C730.43,2441.13 745.469,2438.32 761.172,2431.71C774.379,2426.17 788.09,2417.81 802.148,2406.48C807.539,2418.12 813.09,2430.15 818.75,2442.42C821.371,2448.04 823.98,2453.74 826.602,2459.37C832.93,2453.98 839.41,2449.1 845.781,2445.03C852.379,2440.85 858.828,2437.34 865,2434.33C854.301,2411.24 843.828,2388.47 834.301,2367.81C822.301,2341.67 811.801,2318.78 804.34,2302.42C799.262,2291.28 795.629,2283.32 793.75,2279.25L818.281,2232.65C824.141,2221.6 819.879,2207.85 808.789,2202.03C797.699,2196.21 783.98,2200.46 778.16,2211.56L725.199,2312.14C719.379,2323.24 723.629,2336.95 734.73,2342.77C745.781,2348.63 759.531,2344.33 765.352,2333.28L767.07,2329.99C772.66,2342.22 779.449,2357.03 786.988,2373.51L786.211,2372.61C771.762,2385.39 758.672,2393.43 747.148,2398.24C735.59,2403.08 725.59,2404.8 716.762,2404.8C700.66,2404.8 687.809,2398.94 678.52,2392.69C680,2384.25 681.172,2374.45 679.922,2369.06L678.949,2368.51L624.02,2338.9C618.91,2341.24 608.16,2346.75 595.43,2356.95C584.84,2372.81 584.648,2379.17 584.648,2379.17C594.691,2389.21 591.91,2408 588.199,2423.32L449.449,2664.49C441.371,2678.35 446.02,2696.17 459.84,2704.25L467.699,2708.86C476.719,2714.17 487.379,2713.94 495.98,2709.41C488.398,2716.09 478.551,2720.07 468.199,2720.07C460.781,2720.07 453.441,2718.08 447.031,2714.29L439.18,2709.72C429.531,2704.02 422.621,2694.96 419.801,2684.14C416.949,2673.28 418.52,2661.99 424.18,2652.34C424.18,2652.34 452.699,2604.1 483.672,2551.67C436.172,2545.27 387.191,2567.07 361.172,2610.85C326.371,2669.37 345.512,2745.07 403.98,2779.88C462.461,2814.64 538.199,2795.39 573.012,2736.87C599.488,2692.34 594.488,2637.96 564.879,2599.14L602.699,2533.67C666.289,2595.15 681.988,2694.29 634.801,2773.63C579.648,2866.28 459.801,2896.83 367.191,2841.71C274.57,2786.64 244.262,2666.75 299.41,2574.1C345.898,2495.89 438.52,2462.22 521.949,2486.67C530.039,2472.92 537.422,2460.35 543.52,2449.92C522.379,2443.04 500.23,2439.41 477.852,2439.41C452.148,2439.41 426.84,2443.94 402.73,2452.96C396.988,2455.11 376.328,2461.32 363.789,2461.32L319.41,2461.32C316.09,2461.32 312.969,2461.01 309.922,2460.54C282.27,2480.93 258.129,2507.03 239.449,2538.39C164.648,2664.21 205.82,2826.95 331.52,2901.67Z" style="fill:rgb(27,25,24);"/>
        </g>
        <g transform="matrix(0.526047,0,0,0.526047,1142.67,1452)">
            <path d="M1945.63,2711.21C1928.71,2702.15 1911.17,2694.69 1893.36,2688.67C1878.98,2709.26 1849.34,2722.03 1839.1,2725.94L1835.74,2727.23L1829.41,2727.23C1841.33,2730.12 1852.58,2733.71 1862.46,2738.48C2016.02,2812.58 2010.9,2883.91 2037.19,2883.91L2080.86,2883.91C2087.77,2883.91 2088.63,2872.78 2086.52,2867.27C2062.38,2804.1 2014.3,2748.01 1945.63,2711.21Z" style="fill:rgb(27,25,24);"/>
        </g>
        <g transform="matrix(0.526047,0,0,0.526047,1142.67,1674.96)">
            <path d="M837.379,2469.96C824.488,2489.26 815.82,2514.26 815.898,2543.2C815.898,2554.77 817.23,2566.95 820,2579.73C827.891,2615.66 844.449,2653.05 860.352,2684.73C868.32,2700.51 876.129,2714.8 882.66,2726.33C889.141,2737.85 894.449,2746.8 896.949,2751.25C901.641,2759.57 906.602,2767.42 912.301,2774.84C922.23,2787.81 934.961,2799.26 950.781,2807.5C962.66,2813.71 975.941,2818.28 991.211,2821.76C1014.14,2826.88 1041.6,2829.69 1077.15,2831.37C1112.7,2833.05 1156.33,2833.52 1211.21,2833.52C1221.84,2833.48 1232.62,2831.68 1244.73,2828.98C1265.78,2824.22 1290.43,2816.29 1316.52,2806.95C1355.63,2792.89 1397.7,2775.59 1432.27,2760.9C1439.57,2757.81 1446.45,2754.84 1453.01,2752.03C1452.97,2751.99 1451.37,2748.32 1451.37,2748.32L1431.88,2703.48C1403.59,2715.66 1367.34,2730.98 1331.45,2744.84C1305.59,2754.84 1280,2764.02 1258.32,2770.55C1247.5,2773.83 1237.66,2776.41 1229.45,2778.13C1221.29,2779.84 1214.65,2780.63 1211.21,2780.59C1155.78,2780.59 1112.23,2780.08 1078.01,2778.44C1052.34,2777.19 1031.91,2775.27 1015.86,2772.58C1003.79,2770.63 994.219,2768.2 986.559,2765.47C975.078,2761.29 968.09,2756.84 961.762,2750.9C955.469,2744.96 949.648,2736.88 943.051,2725.2C940.039,2719.84 935.039,2711.41 928.75,2700.31C919.41,2683.71 907.379,2661.52 896.602,2637.97C885.781,2614.45 876.289,2589.45 871.762,2568.48C869.691,2559.1 868.871,2550.7 868.871,2543.2C868.871,2537.85 869.379,2533.05 870.121,2528.52C870.738,2529.77 871.371,2531.13 871.988,2532.38C888.441,2567.11 902.27,2595.63 910.59,2611.25C921.289,2631.33 930.859,2648.48 940.941,2663.36C948.52,2674.49 956.449,2684.41 965.469,2693.05C978.949,2705.98 995.199,2715.63 1013.95,2721.29C1032.73,2726.99 1053.71,2729.1 1078.83,2729.14L1232.38,2729.14C1234.77,2729.1 1260.86,2728.87 1293.2,2711.99C1309.34,2703.55 1326.91,2690.86 1343.24,2672.3C1359.57,2653.71 1374.61,2629.26 1386.05,2597.73C1406.95,2540.27 1433.28,2478.44 1454.3,2431.09C1464.84,2407.38 1474.06,2387.3 1480.63,2373.2C1483.91,2366.13 1486.52,2360.55 1488.32,2356.72C1490.16,2352.93 1491.09,2350.94 1491.09,2350.94C1496.52,2339.65 1491.76,2326.09 1480.47,2320.66C1469.18,2315.23 1455.63,2320 1450.2,2331.29C1450.04,2331.64 1386.37,2464.22 1343.44,2582.23C1333.71,2608.91 1321.6,2628.16 1309.18,2642.34C1290.47,2663.55 1270.82,2673.67 1255.78,2678.83C1248.28,2681.37 1241.99,2682.62 1237.77,2683.24C1235.66,2683.52 1234.1,2683.67 1233.16,2683.71L1232.27,2683.75L1078.83,2683.75C1058.83,2683.79 1043.44,2682.19 1031.52,2679.1C1022.54,2676.8 1015.43,2673.75 1009.02,2669.77C999.488,2663.83 991.02,2655.39 981.602,2642.38C972.27,2629.38 962.379,2611.95 950.629,2589.88C943.16,2575.94 929.262,2547.34 912.969,2512.97C908.16,2502.81 903.09,2491.99 897.891,2480.98C907.422,2472.81 918.238,2466.41 928.238,2461.84C936.48,2458.01 944.02,2455.43 949.301,2453.83C951.949,2453.05 954.02,2452.5 955.352,2452.19L956.801,2451.84C971.328,2448.87 980.59,2434.96 977.73,2420.63C974.84,2406.29 960.898,2396.99 946.559,2399.88C944.77,2400.31 914.84,2406.13 882.852,2426.37C866.91,2436.52 850.309,2450.51 837.379,2469.96Z" style="fill:rgb(27,25,24);"/>
        </g>
        <g transform="matrix(0.31378,0.422218,0.422218,-0.31378,486.513,3118)">
            <path d="M1765.83,2354.7C1828.61,2380.9 1858.34,2453.17 1832.13,2516.01C1819.13,2547.18 1794.75,2570.16 1765.83,2582.26L1702.54,2346.35C1723.35,2343.63 1745.07,2346.03 1765.83,2354.7Z" style="fill:rgb(27,25,24);"/>
        </g>
    </g>
    <g transform="matrix(1.08508,0,0,1.09726,-106.495,-911.513)">
        <rect x="831.965" y="2277.56" width="1769.24" height="68.81"/>
    </g>
    <g transform="matrix(1.01321,0,0,1,-37.3457,-708.661)">
        <rect x="808.268" y="2449.32" width="2017.88" height="14.408"/>
    </g>
    <g transform="matrix(0.98177,0.190073,-0.190073,0.98177,499.176,-993.941)">
        <path d="M1087.14,1789.47L1040.9,1743.23" style="fill:none;"/>
        <path d="M1753.94,1510.9L1753.94,1429.72L1753.94,1510.9Z" style="fill:none;"/>
        <path d="M1393.62,1580.66L1363.74,1508.01" style="fill:none;"/>
        <path d="M2092.77,1630.87L2143.38,1508.01" style="fill:none;"/>
        <path d="M2422.52,1784.38L2465.42,1739.26" style="fill:none;"/>
        <path d="M881.551,2075.27L808.268,2043.26L881.551,2075.27Z" style="fill:none;"/>
    </g>
    <g transform="matrix(1,0,0,1,-6.82121e-13,-23.7882)">
        <path d="M964.884,3010.02L949.828,2999.85L976.789,2959.91L948.421,2978.29L938.1,2971.32L944.533,2938.14L917.572,2978.08L903.325,2968.47L943.999,2908.2L961.443,2919.98L954.721,2958.74L988.114,2937.98L1005.56,2949.75L964.884,3010.02Z" style="fill-rule:nonzero;"/>
        <path d="M1105.32,3048.55C1099.73,3058.88 1092.56,3065.52 1083.83,3068.46C1075.1,3071.39 1065.92,3070.26 1056.3,3065.06C1046.65,3059.84 1040.7,3052.74 1038.45,3043.77C1036.2,3034.8 1037.83,3025.22 1043.34,3015.03C1048.9,3004.75 1056.04,2998.11 1064.77,2995.11C1073.5,2992.12 1082.68,2993.23 1092.33,2998.45C1101.95,3003.65 1107.92,3010.72 1110.23,3019.64C1112.55,3028.58 1110.91,3038.21 1105.32,3048.55ZM1088.76,3039.53C1090.82,3035.73 1092.18,3032.27 1092.84,3029.17C1093.5,3026.07 1093.64,3023.3 1093.25,3020.87C1092.82,3018.38 1091.94,3016.29 1090.62,3014.59C1089.3,3012.89 1087.71,3011.54 1085.85,3010.54C1083.87,3009.47 1081.89,3008.85 1079.91,3008.68C1077.93,3008.52 1075.7,3008.94 1073.24,3009.93C1071.02,3010.88 1068.77,3012.51 1066.46,3014.82C1064.16,3017.13 1061.98,3020.18 1059.92,3023.99C1057.8,3027.91 1056.42,3031.38 1055.79,3034.39C1055.16,3037.4 1055.05,3040.14 1055.45,3042.62C1055.87,3045.13 1056.74,3047.24 1058.08,3048.95C1059.41,3050.65 1061.01,3052.01 1062.87,3053.01C1064.76,3054.03 1066.82,3054.62 1069.03,3054.76C1071.25,3054.91 1073.47,3054.47 1075.68,3053.45C1078.07,3052.33 1080.3,3050.73 1082.38,3048.66C1084.47,3046.59 1086.59,3043.54 1088.76,3039.53Z" style="fill-rule:nonzero;"/>
        <path d="M1165.02,3116.56L1188.33,3062.53L1168.6,3054.02L1174.1,3041.29L1230.32,3065.55L1224.82,3078.28L1205.1,3069.77L1181.79,3123.79L1165.02,3116.56Z" style="fill-rule:nonzero;"/>
        <path d="M1339.15,3142.64C1335.47,3153.8 1329.59,3161.59 1321.52,3166.02C1313.44,3170.45 1304.21,3170.96 1293.82,3167.53C1283.4,3164.1 1276.3,3158.16 1272.5,3149.73C1268.7,3141.29 1268.61,3131.57 1272.24,3120.57C1275.9,3109.47 1281.76,3101.68 1289.82,3097.19C1297.89,3092.7 1307.12,3092.17 1317.54,3095.61C1327.93,3099.04 1335.05,3104.94 1338.9,3113.32C1342.75,3121.71 1342.84,3131.48 1339.15,3142.64ZM1321.27,3136.69C1322.63,3132.58 1323.36,3128.93 1323.46,3125.76C1323.56,3122.59 1323.21,3119.85 1322.4,3117.52C1321.54,3115.15 1320.31,3113.24 1318.71,3111.8C1317.11,3110.37 1315.3,3109.32 1313.29,3108.66C1311.16,3107.95 1309.1,3107.69 1307.12,3107.88C1305.14,3108.07 1303.02,3108.87 1300.77,3110.29C1298.76,3111.61 1296.82,3113.61 1294.96,3116.29C1293.1,3118.97 1291.5,3122.36 1290.14,3126.47C1288.74,3130.71 1288,3134.36 1287.91,3137.43C1287.83,3140.51 1288.2,3143.22 1289.03,3145.59C1289.88,3148 1291.11,3149.92 1292.73,3151.36C1294.34,3152.8 1296.16,3153.85 1298.16,3154.52C1300.21,3155.19 1302.33,3155.4 1304.54,3155.15C1306.74,3154.9 1308.85,3154.08 1310.85,3152.69C1313,3151.17 1314.91,3149.2 1316.6,3146.79C1318.29,3144.38 1319.84,3141.01 1321.27,3136.69Z" style="fill-rule:nonzero;"/>
        <path d="M1426.44,3204.34C1415.82,3201.88 1408.12,3196.71 1403.37,3188.84C1398.61,3180.97 1397.58,3171.22 1400.28,3159.58C1402.88,3148.35 1408.09,3140.13 1415.9,3134.91C1423.71,3129.68 1432.93,3128.31 1443.55,3130.77C1446.38,3131.43 1448.88,3132.17 1451.05,3133.01C1453.23,3133.85 1455.29,3134.8 1457.21,3135.84C1458.72,3136.69 1460.33,3137.75 1462.04,3139.02C1463.75,3140.28 1465.12,3141.35 1466.16,3142.23L1462.24,3159.12L1460.43,3158.7C1459.75,3157.74 1458.89,3156.57 1457.83,3155.21C1456.78,3153.85 1455.55,3152.47 1454.13,3151.07C1452.72,3149.67 1451.11,3148.39 1449.29,3147.21C1447.47,3146.04 1445.49,3145.2 1443.33,3144.7C1440.76,3144.11 1438.31,3143.97 1435.99,3144.28C1433.66,3144.59 1431.29,3145.52 1428.9,3147.07C1426.7,3148.47 1424.68,3150.57 1422.85,3153.39C1421.01,3156.2 1419.6,3159.7 1418.63,3163.89C1417.61,3168.29 1417.34,3172.13 1417.81,3175.4C1418.29,3178.67 1419.27,3181.44 1420.74,3183.72C1422.17,3185.93 1423.93,3187.69 1426.01,3189.01C1428.09,3190.32 1430.26,3191.24 1432.51,3191.77C1434.86,3192.31 1437.18,3192.44 1439.49,3192.16C1441.79,3191.87 1443.79,3191.43 1445.47,3190.81C1447.28,3190.2 1448.91,3189.52 1450.35,3188.79C1451.79,3188.05 1453.04,3187.39 1454.12,3186.8L1455.73,3187.18L1451.87,3203.83C1450.43,3204.13 1448.76,3204.47 1446.87,3204.85C1444.98,3205.23 1443.07,3205.48 1441.13,3205.6C1438.76,3205.75 1436.57,3205.77 1434.55,3205.67C1432.54,3205.57 1429.83,3205.13 1426.44,3204.34Z" style="fill-rule:nonzero;"/>
        <path d="M1572.64,3228.8L1515.56,3220.61L1517.5,3207.13L1557.03,3167.12L1525.66,3162.62L1527.62,3148.89L1581.03,3156.55L1579.07,3170.28L1539.62,3210.05L1574.61,3215.07L1572.64,3228.8Z" style="fill-rule:nonzero;"/>
        <path d="M1739.55,3167.73L1717.86,3239.52L1697.86,3238.61L1688.24,3193.16L1674.88,3237.57L1654.89,3236.66L1639.8,3163.2L1658.72,3164.06L1666.51,3213.24L1680.91,3165.06L1699.01,3165.89L1708.36,3215.14L1721.11,3166.89L1739.55,3167.73Z" style="fill-rule:nonzero;"/>
        <path d="M1798.22,3239.37L1818.9,3165.47L1838.8,3164.41L1867.17,3235.71L1848.4,3236.71L1843.08,3222.13L1820.26,3223.34L1816.51,3238.4L1798.22,3239.37ZM1838.38,3209.17L1829.7,3185.62L1823.56,3209.96L1838.38,3209.17Z" style="fill-rule:nonzero;"/>
        <path d="M2001.08,3219.25L1979.05,3222.48L1955.14,3199.03L1948.66,3199.98L1952.52,3226.36L1934.55,3228.99L1924.03,3157.05L1952.97,3152.81C1956.96,3152.23 1960.47,3151.97 1963.51,3152.03C1966.55,3152.1 1969.44,3152.74 1972.18,3153.95C1975,3155.22 1977.35,3157 1979.23,3159.31C1981.11,3161.62 1982.34,3164.72 1982.91,3168.62C1983.72,3174.12 1983.13,3178.77 1981.15,3182.57C1979.17,3186.36 1976.26,3189.57 1972.4,3192.21L2001.08,3219.25ZM1964.69,3173.6C1964.43,3171.8 1963.85,3170.29 1962.97,3169.09C1962.09,3167.89 1960.79,3167.05 1959.07,3166.58C1957.88,3166.26 1956.58,3166.13 1955.17,3166.21C1953.77,3166.28 1952.04,3166.47 1949.97,3166.77L1943.93,3167.65L1946.77,3187.03L1951.94,3186.27C1954.45,3185.91 1956.56,3185.44 1958.27,3184.88C1959.98,3184.31 1961.38,3183.44 1962.45,3182.27C1963.48,3181.2 1964.19,3179.99 1964.57,3178.65C1964.95,3177.31 1964.99,3175.63 1964.69,3173.6Z" style="fill-rule:nonzero;"/>
        <path d="M2078.77,3203.51L2065.43,3146.21L2044.5,3151.08L2041.36,3137.58L2100.99,3123.69L2104.14,3137.2L2083.21,3142.07L2096.55,3199.37L2078.77,3203.51Z" style="fill-rule:nonzero;"/>
        <path d="M2182.4,3176.21L2160.02,3107.03L2206.8,3091.89L2211.07,3105.09L2181.57,3114.64L2185.49,3126.76L2212.67,3117.97L2216.94,3131.16L2189.76,3139.95L2195.41,3157.42L2224.91,3147.88L2229.18,3161.07L2182.4,3176.21Z" style="fill-rule:nonzero;"/>
        <path d="M2356.03,3111.05L2335.72,3119.67L2305.92,3100.23L2304.59,3106.21L2314.19,3128.82L2297.38,3135.95L2268.96,3069.03L2285.77,3061.89L2298.39,3091.6L2307.16,3052.81L2326.62,3044.55L2315.95,3085.74L2356.03,3111.05Z" style="fill-rule:nonzero;"/>
        <path d="M2429.44,3075.11L2414.06,3082.99L2405.31,3065.91L2420.69,3058.03L2429.44,3075.11Z" style="fill-rule:nonzero;"/>
        <path d="M2516.19,2967.87C2517.95,2970.76 2519.18,2973.78 2519.86,2976.96C2520.54,2980.13 2520.55,2983.11 2519.9,2985.92C2519.51,2987.64 2518.96,2989.35 2518.25,2991.04C2517.55,2992.73 2516.63,2994.36 2515.49,2995.94C2514.36,2997.51 2513,2999.02 2511.43,3000.48C2509.86,3001.94 2507.97,3003.34 2505.74,3004.7L2497.58,3009.7L2509.99,3029.98L2494.41,3039.51L2456.47,2977.48L2480.55,2962.76C2484.14,2960.57 2487.43,2959 2490.42,2958.07C2493.42,2957.13 2496.4,2956.73 2499.38,2956.86C2502.66,2956.98 2505.74,2957.95 2508.6,2959.77C2511.47,2961.59 2514,2964.28 2516.19,2967.87ZM2500.42,2978.02C2499.35,2976.28 2498.01,2975.02 2496.41,2974.27C2494.8,2973.51 2493.27,2973.26 2491.82,2973.5C2489.95,2973.76 2488.32,2974.26 2486.91,2974.98C2485.51,2975.71 2483.65,2976.78 2481.35,2978.18L2479.14,2979.53L2490.5,2998.11L2491.58,2997.45C2493.05,2996.55 2494.43,2995.69 2495.72,2994.86C2497.01,2994.04 2498.09,2993.24 2498.96,2992.48C2499.71,2991.83 2500.42,2991.02 2501.11,2990.05C2501.79,2989.08 2502.23,2988.19 2502.43,2987.39C2502.85,2985.71 2502.91,2984.21 2502.61,2982.87C2502.3,2981.53 2501.58,2979.91 2500.42,2978.02Z" style="fill-rule:nonzero;"/>
        <path d="M2639.04,2942.8L2599.87,2971.46L2556.94,2912.78L2571.68,2902L2606.42,2949.49L2630.85,2931.61L2639.04,2942.8Z" style="fill-rule:nonzero;"/>
    </g>
</svg>
